<svg version="1.1" viewBox="0.0 0.0 960.0 720.0" fill="none" stroke="none" stroke-linecap="square" stroke-miterlimit="10" xmlns:xlink="http://www.w3.org/1999/xlink" xmlns="http://www.w3.org/2000/svg"><clipPath id="p.0"><path d="m0 0l960.0 0l0 720.0l-960.0 0l0 -720.0z" clip-rule="nonzero"/></clipPath><g clip-path="url(#p.0)"><path fill="#000000" fill-opacity="0.0" d="m0 0l960.0 0l0 720.0l-960.0 0z" fill-rule="evenodd"/><path fill="#cfe2f3" d="m153.29134 127.96349l0 0c0 -6.589859 5.3421326 -11.931999 11.932007 -11.931999l135.4746 0c3.1645508 0 6.1994934 1.2571182 8.437195 3.4948044c2.237671 2.2376785 3.4947815 5.272629 3.4947815 8.437195l0 47.726555c0 6.589859 -5.3421326 11.931992 -11.931976 11.931992l-135.4746 0c-6.5898743 0 -11.932007 -5.3421326 -11.932007 -11.931992z" fill-rule="evenodd"/><path stroke="#000000" stroke-width="1.0" stroke-linejoin="round" stroke-linecap="butt" d="m153.29134 127.96349l0 0c0 -6.589859 5.3421326 -11.931999 11.932007 -11.931999l135.4746 0c3.1645508 0 6.1994934 1.2571182 8.437195 3.4948044c2.237671 2.2376785 3.4947815 5.272629 3.4947815 8.437195l0 47.726555c0 6.589859 -5.3421326 11.931992 -11.931976 11.931992l-135.4746 0c-6.5898743 0 -11.932007 -5.3421326 -11.932007 -11.931992z" fill-rule="evenodd"/><path fill="#000000" d="m211.15768 158.74677l5.125 -13.359375l1.90625 0l5.46875 13.359375l-2.015625 0l-1.546875 -4.046875l-5.59375 0l-1.46875 4.046875l-1.875 0zm3.859375 -5.484375l4.53125 0l-1.40625 -3.703125q-0.625 -1.6875 -0.9375 -2.765625q-0.265625 1.28125 -0.71875 2.546875l-1.46875 3.921875zm16.162323 1.9375l1.609375 0.21875q-0.265625 1.65625 -1.359375 2.609375q-1.078125 0.9375 -2.671875 0.9375q-1.984375 0 -3.1875 -1.296875q-1.203125 -1.296875 -1.203125 -3.71875q0 -1.578125 0.515625 -2.75q0.515625 -1.171875 1.578125 -1.75q1.0625 -0.59375 2.3125 -0.59375q1.578125 0 2.578125 0.796875q1.0 0.796875 1.28125 2.265625l-1.59375 0.234375q-0.234375 -0.96875 -0.8125 -1.453125q-0.578125 -0.5 -1.390625 -0.5q-1.234375 0 -2.015625 0.890625q-0.78125 0.890625 -0.78125 2.8125q0 1.953125 0.75 2.84375q0.75 0.875 1.953125 0.875q0.96875 0 1.609375 -0.59375q0.65625 -0.59375 0.828125 -1.828125zm6.59375 2.078125l0.234375 1.453125q-0.6875 0.140625 -1.234375 0.140625q-0.890625 0 -1.390625 -0.28125q-0.484375 -0.28125 -0.6875 -0.734375q-0.203125 -0.46875 -0.203125 -1.9375l0 -5.578125l-1.203125 0l0 -1.265625l1.203125 0l0 -2.390625l1.625 -0.984375l0 3.375l1.65625 0l0 1.265625l-1.65625 0l0 5.671875q0 0.6875 0.078125 0.890625q0.09375 0.203125 0.28125 0.328125q0.203125 0.109375 0.578125 0.109375q0.265625 0 0.71875 -0.0625zm0.99580383 -3.375q0 -2.6875 1.484375 -3.96875q1.25 -1.078125 3.046875 -1.078125q2.0 0 3.265625 1.3125q1.265625 1.296875 1.265625 3.609375q0 1.859375 -0.5625 2.9375q-0.5625 1.0625 -1.640625 1.65625q-1.0625 0.59375 -2.328125 0.59375q-2.03125 0 -3.28125 -1.296875q-1.25 -1.3125 -1.25 -3.765625zm1.6875 0q0 1.859375 0.796875 2.796875q0.8125 0.921875 2.046875 0.921875q1.21875 0 2.03125 -0.921875q0.8125 -0.9375 0.8125 -2.84375q0 -1.796875 -0.8125 -2.71875q-0.8125 -0.921875 -2.03125 -0.921875q-1.234375 0 -2.046875 0.921875q-0.796875 0.90625 -0.796875 2.765625zm9.281967 4.84375l0 -9.671875l1.46875 0l0 1.46875q0.5625 -1.03125 1.03125 -1.359375q0.484375 -0.328125 1.0625 -0.328125q0.828125 0 1.6875 0.53125l-0.5625 1.515625q-0.609375 -0.359375 -1.203125 -0.359375q-0.546875 0 -0.96875 0.328125q-0.421875 0.328125 -0.609375 0.890625q-0.28125 0.875 -0.28125 1.921875l0 5.0625l-1.625 0z" fill-rule="nonzero"/><path fill="#cfe2f3" d="m400.33072 127.96349l0 0c0 -6.589859 5.3421326 -11.931999 11.931976 -11.931999l135.47461 0c3.1645508 0 6.199524 1.2571182 8.437195 3.4948044c2.237671 2.2376785 3.494812 5.272629 3.494812 8.437195l0 47.726555c0 6.589859 -5.342163 11.931992 -11.932007 11.931992l-135.47461 0c-6.5898438 0 -11.931976 -5.3421326 -11.931976 -11.931992z" fill-rule="evenodd"/><path stroke="#000000" stroke-width="1.0" stroke-linejoin="round" stroke-linecap="butt" d="m400.33072 127.96349l0 0c0 -6.589859 5.3421326 -11.931999 11.931976 -11.931999l135.47461 0c3.1645508 0 6.199524 1.2571182 8.437195 3.4948044c2.237671 2.2376785 3.494812 5.272629 3.494812 8.437195l0 47.726555c0 6.589859 -5.342163 11.931992 -11.932007 11.931992l-135.47461 0c-6.5898438 0 -11.931976 -5.3421326 -11.931976 -11.931992z" fill-rule="evenodd"/><path fill="#000000" d="m469.7254 154.05927l1.765625 0.453125q-0.5625 2.171875 -2.0 3.328125q-1.4375 1.140625 -3.53125 1.140625q-2.15625 0 -3.515625 -0.875q-1.34375 -0.890625 -2.0625 -2.546875q-0.703125 -1.671875 -0.703125 -3.59375q0 -2.078125 0.796875 -3.625q0.796875 -1.5625 2.265625 -2.359375q1.484375 -0.8125 3.25 -0.8125q2.0 0 3.359375 1.015625q1.375 1.015625 1.90625 2.875l-1.734375 0.40625q-0.46875 -1.453125 -1.359375 -2.109375q-0.875 -0.671875 -2.203125 -0.671875q-1.546875 0 -2.578125 0.734375q-1.03125 0.734375 -1.453125 1.984375q-0.421875 1.234375 -0.421875 2.5625q0 1.703125 0.5 2.96875q0.5 1.265625 1.546875 1.90625q1.046875 0.625 2.265625 0.625q1.484375 0 2.515625 -0.859375q1.03125 -0.859375 1.390625 -2.546875zm3.7229614 4.6875l0 -9.671875l1.46875 0l0 1.46875q0.5625 -1.03125 1.03125 -1.359375q0.484375 -0.328125 1.0625 -0.328125q0.828125 0 1.6875 0.53125l-0.5625 1.515625q-0.609375 -0.359375 -1.203125 -0.359375q-0.546875 0 -0.96875 0.328125q-0.421875 0.328125 -0.609375 0.890625q-0.28125 0.875 -0.28125 1.921875l0 5.0625l-1.625 0zm6.228302 -11.46875l0 -1.890625l1.640625 0l0 1.890625l-1.640625 0zm0 11.46875l0 -9.671875l1.640625 0l0 9.671875l-1.640625 0zm7.722931 -1.46875l0.234375 1.453125q-0.6875 0.140625 -1.234375 0.140625q-0.890625 0 -1.390625 -0.28125q-0.484375 -0.28125 -0.6875 -0.734375q-0.203125 -0.46875 -0.203125 -1.9375l0 -5.578125l-1.203125 0l0 -1.265625l1.203125 0l0 -2.390625l1.625 -0.984375l0 3.375l1.65625 0l0 1.265625l-1.65625 0l0 5.671875q0 0.6875 0.078125 0.890625q0.09375 0.203125 0.28125 0.328125q0.203125 0.109375 0.578125 0.109375q0.265625 0 0.71875 -0.0625zm1.6051941 -10.0l0 -1.890625l1.640625 0l0 1.890625l-1.640625 0zm0 11.46875l0 -9.671875l1.640625 0l0 9.671875l-1.640625 0zm10.457306 -3.546875l1.609375 0.21875q-0.265625 1.65625 -1.359375 2.609375q-1.078125 0.9375 -2.671875 0.9375q-1.984375 0 -3.1875 -1.296875q-1.203125 -1.296875 -1.203125 -3.71875q0 -1.578125 0.515625 -2.75q0.515625 -1.171875 1.578125 -1.75q1.0625 -0.59375 2.3125 -0.59375q1.578125 0 2.578125 0.796875q1.0 0.796875 1.28125 2.265625l-1.59375 0.234375q-0.234375 -0.96875 -0.8125 -1.453125q-0.578125 -0.5 -1.390625 -0.5q-1.234375 0 -2.015625 0.890625q-0.78125 0.890625 -0.78125 2.8125q0 1.953125 0.75 2.84375q0.75 0.875 1.953125 0.875q0.96875 0 1.609375 -0.59375q0.65625 -0.59375 0.828125 -1.828125z" fill-rule="nonzero"/><path fill="#cfe2f3" d="m153.29134 282.98975l0 0c0 -6.5898743 5.3421326 -11.932007 11.932007 -11.932007l135.4746 0c3.1645508 0 6.1994934 1.2571106 8.437195 3.494812c2.237671 2.237671 3.4947815 5.2726135 3.4947815 8.437195l0 47.726562c0 6.5898438 -5.3421326 11.931976 -11.931976 11.931976l-135.4746 0c-6.5898743 0 -11.932007 -5.3421326 -11.932007 -11.931976z" fill-rule="evenodd"/><path stroke="#000000" stroke-width="1.0" stroke-linejoin="round" stroke-linecap="butt" d="m153.29134 282.98975l0 0c0 -6.5898743 5.3421326 -11.932007 11.932007 -11.932007l135.4746 0c3.1645508 0 6.1994934 1.2571106 8.437195 3.494812c2.237671 2.237671 3.4947815 5.2726135 3.4947815 8.437195l0 47.726562c0 6.5898438 -5.3421326 11.931976 -11.931976 11.931976l-135.4746 0c-6.5898743 0 -11.932007 -5.3421326 -11.932007 -11.931976z" fill-rule="evenodd"/><path fill="#000000" d="m195.2558 313.773l5.125 -13.359375l1.90625 0l5.46875 13.359375l-2.015625 0l-1.546875 -4.046875l-5.59375 0l-1.46875 4.046875l-1.875 0zm3.859375 -5.484375l4.53125 0l-1.40625 -3.703125q-0.625 -1.6875 -0.9375 -2.765625q-0.265625 1.28125 -0.71875 2.546875l-1.46875 3.921875zm16.162323 1.9375l1.609375 0.21875q-0.265625 1.65625 -1.359375 2.609375q-1.078125 0.9375 -2.671875 0.9375q-1.984375 0 -3.1875 -1.296875q-1.203125 -1.296875 -1.203125 -3.71875q0 -1.578125 0.515625 -2.75q0.515625 -1.171875 1.578125 -1.75q1.0625 -0.59375 2.3125 -0.59375q1.578125 0 2.578125 0.796875q1.0 0.796875 1.28125 2.265625l-1.59375 0.234375q-0.234375 -0.96875 -0.8125 -1.453125q-0.578125 -0.5 -1.390625 -0.5q-1.234375 0 -2.015625 0.890625q-0.78125 0.890625 -0.78125 2.8125q0 1.953125 0.75 2.84375q0.75 0.875 1.953125 0.875q0.96875 0 1.609375 -0.59375q0.65625 -0.59375 0.828125 -1.828125zm6.59375 2.078125l0.234375 1.453125q-0.6875 0.140625 -1.234375 0.140625q-0.890625 0 -1.390625 -0.28125q-0.484375 -0.28125 -0.6875 -0.734375q-0.203125 -0.46875 -0.203125 -1.9375l0 -5.578125l-1.203125 0l0 -1.265625l1.203125 0l0 -2.390625l1.625 -0.984375l0 3.375l1.65625 0l0 1.265625l-1.65625 0l0 5.671875q0 0.6875 0.078125 0.890625q0.09375 0.203125 0.28125 0.328125q0.203125 0.109375 0.578125 0.109375q0.265625 0 0.71875 -0.0625zm0.99580383 -3.375q0 -2.6875 1.484375 -3.96875q1.25 -1.078125 3.046875 -1.078125q2.0 0 3.265625 1.3125q1.265625 1.296875 1.265625 3.609375q0 1.859375 -0.5625 2.9375q-0.5625 1.0625 -1.640625 1.65625q-1.0625 0.59375 -2.328125 0.59375q-2.03125 0 -3.28125 -1.296875q-1.25 -1.3125 -1.25 -3.765625zm1.6875 0q0 1.859375 0.796875 2.796875q0.8125 0.921875 2.046875 0.921875q1.21875 0 2.03125 -0.921875q0.8125 -0.9375 0.8125 -2.84375q0 -1.796875 -0.8125 -2.71875q-0.8125 -0.921875 -2.03125 -0.921875q-1.234375 0 -2.046875 0.921875q-0.796875 0.90625 -0.796875 2.765625zm9.281967 4.84375l0 -9.671875l1.46875 0l0 1.46875q0.5625 -1.03125 1.03125 -1.359375q0.484375 -0.328125 1.0625 -0.328125q0.828125 0 1.6875 0.53125l-0.5625 1.515625q-0.609375 -0.359375 -1.203125 -0.359375q-0.546875 0 -0.96875 0.328125q-0.421875 0.328125 -0.609375 0.890625q-0.28125 0.875 -0.28125 1.921875l0 5.0625l-1.625 0z" fill-rule="nonzero"/><path fill="#000000" d="m242.03357 319.78864l0.15625 0.96875q-0.453125 0.09375 -0.828125 0.09375q-0.59375 0 -0.921875 -0.1875q-0.328125 -0.1875 -0.46875 -0.484375q-0.125 -0.3125 -0.125 -1.296875l0 -3.703125l-0.796875 0l0 -0.859375l0.796875 0l0 -1.59375l1.09375 -0.65625l0 2.25l1.09375 0l0 0.859375l-1.09375 0l0 3.765625q0 0.46875 0.046875 0.609375q0.0625 0.125 0.1875 0.203125q0.140625 0.078125 0.390625 0.078125q0.171875 0 0.46875 -0.046875zm5.2836 0.1875q-0.609375 0.515625 -1.171875 0.734375q-0.5625 0.203125 -1.203125 0.203125q-1.0625 0 -1.640625 -0.515625q-0.5625 -0.515625 -0.5625 -1.328125q0 -0.46875 0.203125 -0.859375q0.21875 -0.390625 0.5625 -0.625q0.359375 -0.25 0.796875 -0.359375q0.328125 -0.09375 0.96875 -0.171875q1.328125 -0.15625 1.953125 -0.375q0 -0.21875 0 -0.28125q0 -0.671875 -0.296875 -0.9375q-0.421875 -0.375 -1.25 -0.375q-0.765625 0 -1.140625 0.265625q-0.375 0.265625 -0.546875 0.953125l-1.0625 -0.140625q0.140625 -0.6875 0.46875 -1.109375q0.34375 -0.421875 0.96875 -0.640625q0.640625 -0.234375 1.46875 -0.234375q0.828125 0 1.34375 0.203125q0.515625 0.1875 0.75 0.484375q0.25 0.28125 0.34375 0.734375q0.0625 0.28125 0.0625 1.015625l0 1.453125q0 1.53125 0.0625 1.9375q0.078125 0.390625 0.28125 0.765625l-1.140625 0q-0.171875 -0.34375 -0.21875 -0.796875zm-0.09375 -2.4375q-0.59375 0.234375 -1.78125 0.40625q-0.671875 0.09375 -0.953125 0.21875q-0.28125 0.125 -0.4375 0.359375q-0.15625 0.234375 -0.15625 0.515625q0 0.4375 0.328125 0.734375q0.34375 0.296875 0.984375 0.296875q0.625 0 1.109375 -0.28125q0.5 -0.28125 0.734375 -0.765625q0.171875 -0.359375 0.171875 -1.09375l0 -0.390625zm2.792038 3.234375l0 -6.453125l0.984375 0l0 0.984375q0.375 -0.6875 0.6875 -0.90625q0.328125 -0.21875 0.703125 -0.21875q0.546875 0 1.125 0.34375l-0.375 1.015625q-0.40625 -0.234375 -0.796875 -0.234375q-0.359375 0 -0.65625 0.21875q-0.28125 0.21875 -0.40625 0.59375q-0.171875 0.59375 -0.171875 1.28125l0 3.375l-1.09375 0zm3.9542084 0.53125l1.0625 0.15625q0.0625 0.5 0.359375 0.71875q0.40625 0.3125 1.109375 0.3125q0.765625 0 1.171875 -0.3125q0.421875 -0.296875 0.5625 -0.84375q0.09375 -0.34375 0.078125 -1.40625q-0.71875 0.84375 -1.78125 0.84375q-1.328125 0 -2.0625 -0.953125q-0.71875 -0.96875 -0.71875 -2.3125q0 -0.921875 0.328125 -1.703125q0.328125 -0.78125 0.96875 -1.203125q0.640625 -0.421875 1.484375 -0.421875q1.15625 0 1.890625 0.921875l0 -0.78125l1.0 0l0 5.578125q0 1.5 -0.3125 2.125q-0.296875 0.640625 -0.96875 1.0q-0.65625 0.375 -1.625 0.375q-1.15625 0 -1.875 -0.53125q-0.703125 -0.515625 -0.671875 -1.5625zm0.90625 -3.875q0 1.265625 0.5 1.859375q0.5 0.578125 1.265625 0.578125q0.75 0 1.25 -0.578125q0.515625 -0.578125 0.515625 -1.8125q0 -1.1875 -0.53125 -1.78125q-0.515625 -0.609375 -1.265625 -0.609375q-0.71875 0 -1.234375 0.59375q-0.5 0.59375 -0.5 1.75zm10.620148 1.265625l1.125 0.140625q-0.265625 0.984375 -0.984375 1.53125q-0.71875 0.546875 -1.84375 0.546875q-1.421875 0 -2.25 -0.859375q-0.828125 -0.875 -0.828125 -2.453125q0 -1.625 0.828125 -2.515625q0.84375 -0.90625 2.1875 -0.90625q1.296875 0 2.109375 0.890625q0.828125 0.875 0.828125 2.46875q0 0.09375 -0.015625 0.28125l-4.8125 0q0.0625 1.078125 0.609375 1.640625q0.546875 0.5625 1.34375 0.5625q0.609375 0 1.03125 -0.3125q0.421875 -0.328125 0.671875 -1.015625zm-3.59375 -1.765625l3.609375 0q-0.078125 -0.8125 -0.421875 -1.21875q-0.515625 -0.640625 -1.34375 -0.640625q-0.75 0 -1.265625 0.515625q-0.515625 0.5 -0.578125 1.34375zm8.479553 2.859375l0.15625 0.96875q-0.453125 0.09375 -0.828125 0.09375q-0.59375 0 -0.921875 -0.1875q-0.328125 -0.1875 -0.46875 -0.484375q-0.125 -0.3125 -0.125 -1.296875l0 -3.703125l-0.796875 0l0 -0.859375l0.796875 0l0 -1.59375l1.09375 -0.65625l0 2.25l1.09375 0l0 0.859375l-1.09375 0l0 3.765625q0 0.46875 0.046875 0.609375q0.0625 0.125 0.1875 0.203125q0.140625 0.078125 0.390625 0.078125q0.171875 0 0.46875 -0.046875z" fill-rule="nonzero"/><path fill="#cfe2f3" d="m400.33072 282.98975l0 0c0 -6.5898743 5.3421326 -11.932007 11.931976 -11.932007l135.47461 0c3.1645508 0 6.199524 1.2571106 8.437195 3.494812c2.237671 2.237671 3.494812 5.2726135 3.494812 8.437195l0 47.726562c0 6.5898438 -5.342163 11.931976 -11.932007 11.931976l-135.47461 0c-6.5898438 0 -11.931976 -5.3421326 -11.931976 -11.931976z" fill-rule="evenodd"/><path stroke="#000000" stroke-width="1.0" stroke-linejoin="round" stroke-linecap="butt" d="m400.33072 282.98975l0 0c0 -6.5898743 5.3421326 -11.932007 11.931976 -11.932007l135.47461 0c3.1645508 0 6.199524 1.2571106 8.437195 3.494812c2.237671 2.237671 3.494812 5.2726135 3.494812 8.437195l0 47.726562c0 6.5898438 -5.342163 11.931976 -11.932007 11.931976l-135.47461 0c-6.5898438 0 -11.931976 -5.3421326 -11.931976 -11.931976z" fill-rule="evenodd"/><path fill="#000000" d="m453.82352 309.0855l1.765625 0.453125q-0.5625 2.171875 -2.0 3.328125q-1.4375 1.140625 -3.53125 1.140625q-2.15625 0 -3.515625 -0.875q-1.34375 -0.890625 -2.0625 -2.546875q-0.703125 -1.671875 -0.703125 -3.59375q0 -2.078125 0.796875 -3.625q0.796875 -1.5625 2.265625 -2.359375q1.484375 -0.8125 3.25 -0.8125q2.0 0 3.359375 1.015625q1.375 1.015625 1.90625 2.875l-1.734375 0.40625q-0.46875 -1.453125 -1.359375 -2.109375q-0.875 -0.671875 -2.203125 -0.671875q-1.546875 0 -2.578125 0.734375q-1.03125 0.734375 -1.453125 1.984375q-0.421875 1.234375 -0.421875 2.5625q0 1.703125 0.5 2.96875q0.5 1.265625 1.546875 1.90625q1.046875 0.625 2.265625 0.625q1.484375 0 2.515625 -0.859375q1.03125 -0.859375 1.390625 -2.546875zm3.7229614 4.6875l0 -9.671875l1.46875 0l0 1.46875q0.5625 -1.03125 1.03125 -1.359375q0.484375 -0.328125 1.0625 -0.328125q0.828125 0 1.6875 0.53125l-0.5625 1.515625q-0.609375 -0.359375 -1.203125 -0.359375q-0.546875 0 -0.96875 0.328125q-0.421875 0.328125 -0.609375 0.890625q-0.28125 0.875 -0.28125 1.921875l0 5.0625l-1.625 0zm6.228302 -11.46875l0 -1.890625l1.640625 0l0 1.890625l-1.640625 0zm0 11.46875l0 -9.671875l1.640625 0l0 9.671875l-1.640625 0zm7.722931 -1.46875l0.234375 1.453125q-0.6875 0.140625 -1.234375 0.140625q-0.890625 0 -1.390625 -0.28125q-0.484375 -0.28125 -0.6875 -0.734375q-0.203125 -0.46875 -0.203125 -1.9375l0 -5.578125l-1.203125 0l0 -1.265625l1.203125 0l0 -2.390625l1.625 -0.984375l0 3.375l1.65625 0l0 1.265625l-1.65625 0l0 5.671875q0 0.6875 0.078125 0.890625q0.09375 0.203125 0.28125 0.328125q0.203125 0.109375 0.578125 0.109375q0.265625 0 0.71875 -0.0625zm1.6051941 -10.0l0 -1.890625l1.640625 0l0 1.890625l-1.640625 0zm0 11.46875l0 -9.671875l1.640625 0l0 9.671875l-1.640625 0zm10.457306 -3.546875l1.609375 0.21875q-0.265625 1.65625 -1.359375 2.609375q-1.078125 0.9375 -2.671875 0.9375q-1.984375 0 -3.1875 -1.296875q-1.203125 -1.296875 -1.203125 -3.71875q0 -1.578125 0.515625 -2.75q0.515625 -1.171875 1.578125 -1.75q1.0625 -0.59375 2.3125 -0.59375q1.578125 0 2.578125 0.796875q1.0 0.796875 1.28125 2.265625l-1.59375 0.234375q-0.234375 -0.96875 -0.8125 -1.453125q-0.578125 -0.5 -1.390625 -0.5q-1.234375 0 -2.015625 0.890625q-0.78125 0.890625 -0.78125 2.8125q0 1.953125 0.75 2.84375q0.75 0.875 1.953125 0.875q0.96875 0 1.609375 -0.59375q0.65625 -0.59375 0.828125 -1.828125z" fill-rule="nonzero"/><path fill="#000000" d="m488.5446 319.78864l0.15625 0.96875q-0.453125 0.09375 -0.828125 0.09375q-0.59375 0 -0.921875 -0.1875q-0.328125 -0.1875 -0.46875 -0.484375q-0.125 -0.3125 -0.125 -1.296875l0 -3.703125l-0.796875 0l0 -0.859375l0.796875 0l0 -1.59375l1.09375 -0.65625l0 2.25l1.09375 0l0 0.859375l-1.09375 0l0 3.765625q0 0.46875 0.046875 0.609375q0.0625 0.125 0.1875 0.203125q0.140625 0.078125 0.390625 0.078125q0.171875 0 0.46875 -0.046875zm5.2836 0.1875q-0.609375 0.515625 -1.171875 0.734375q-0.5625 0.203125 -1.203125 0.203125q-1.0625 0 -1.640625 -0.515625q-0.5625 -0.515625 -0.5625 -1.328125q0 -0.46875 0.203125 -0.859375q0.21875 -0.390625 0.5625 -0.625q0.359375 -0.25 0.796875 -0.359375q0.328125 -0.09375 0.96875 -0.171875q1.328125 -0.15625 1.953125 -0.375q0 -0.21875 0 -0.28125q0 -0.671875 -0.296875 -0.9375q-0.421875 -0.375 -1.25 -0.375q-0.765625 0 -1.140625 0.265625q-0.375 0.265625 -0.546875 0.953125l-1.0625 -0.140625q0.140625 -0.6875 0.46875 -1.109375q0.34375 -0.421875 0.96875 -0.640625q0.640625 -0.234375 1.46875 -0.234375q0.828125 0 1.34375 0.203125q0.515625 0.1875 0.75 0.484375q0.25 0.28125 0.34375 0.734375q0.0625 0.28125 0.0625 1.015625l0 1.453125q0 1.53125 0.0625 1.9375q0.078125 0.390625 0.28125 0.765625l-1.140625 0q-0.171875 -0.34375 -0.21875 -0.796875zm-0.09375 -2.4375q-0.59375 0.234375 -1.78125 0.40625q-0.671875 0.09375 -0.953125 0.21875q-0.28125 0.125 -0.4375 0.359375q-0.15625 0.234375 -0.15625 0.515625q0 0.4375 0.328125 0.734375q0.34375 0.296875 0.984375 0.296875q0.625 0 1.109375 -0.28125q0.5 -0.28125 0.734375 -0.765625q0.171875 -0.359375 0.171875 -1.09375l0 -0.390625zm2.7920532 3.234375l0 -6.453125l0.984375 0l0 0.984375q0.375 -0.6875 0.6875 -0.90625q0.328125 -0.21875 0.703125 -0.21875q0.546875 0 1.125 0.34375l-0.375 1.015625q-0.40625 -0.234375 -0.796875 -0.234375q-0.359375 0 -0.65625 0.21875q-0.28125 0.21875 -0.40625 0.59375q-0.171875 0.59375 -0.171875 1.28125l0 3.375l-1.09375 0zm3.954193 0.53125l1.0625 0.15625q0.0625 0.5 0.359375 0.71875q0.40625 0.3125 1.109375 0.3125q0.765625 0 1.171875 -0.3125q0.421875 -0.296875 0.5625 -0.84375q0.09375 -0.34375 0.078125 -1.40625q-0.71875 0.84375 -1.78125 0.84375q-1.328125 0 -2.0625 -0.953125q-0.71875 -0.96875 -0.71875 -2.3125q0 -0.921875 0.328125 -1.703125q0.328125 -0.78125 0.96875 -1.203125q0.640625 -0.421875 1.484375 -0.421875q1.15625 0 1.890625 0.921875l0 -0.78125l1.0 0l0 5.578125q0 1.5 -0.3125 2.125q-0.296875 0.640625 -0.96875 1.0q-0.65625 0.375 -1.625 0.375q-1.15625 0 -1.875 -0.53125q-0.703125 -0.515625 -0.671875 -1.5625zm0.90625 -3.875q0 1.265625 0.5 1.859375q0.5 0.578125 1.265625 0.578125q0.75 0 1.25 -0.578125q0.515625 -0.578125 0.515625 -1.8125q0 -1.1875 -0.53125 -1.78125q-0.515625 -0.609375 -1.265625 -0.609375q-0.71875 0 -1.234375 0.59375q-0.5 0.59375 -0.5 1.75zm10.620148 1.265625l1.125 0.140625q-0.265625 0.984375 -0.984375 1.53125q-0.7187195 0.546875 -1.8437195 0.546875q-1.421875 0 -2.25 -0.859375q-0.828125 -0.875 -0.828125 -2.453125q0 -1.625 0.828125 -2.515625q0.84375 -0.90625 2.1875 -0.90625q1.296875 0 2.1093445 0.890625q0.828125 0.875 0.828125 2.46875q0 0.09375 -0.015625 0.28125l-4.8124695 0q0.0625 1.078125 0.609375 1.640625q0.546875 0.5625 1.34375 0.5625q0.609375 0 1.03125 -0.3125q0.421875 -0.328125 0.6718445 -1.015625zm-3.5937195 -1.765625l3.6093445 0q-0.07809448 -0.8125 -0.42184448 -1.21875q-0.515625 -0.640625 -1.34375 -0.640625q-0.75 0 -1.265625 0.515625q-0.515625 0.5 -0.578125 1.34375zm8.479523 2.859375l0.15625 0.96875q-0.453125 0.09375 -0.828125 0.09375q-0.59375 0 -0.921875 -0.1875q-0.328125 -0.1875 -0.46875 -0.484375q-0.125 -0.3125 -0.125 -1.296875l0 -3.703125l-0.796875 0l0 -0.859375l0.796875 0l0 -1.59375l1.09375 -0.65625l0 2.25l1.09375 0l0 0.859375l-1.09375 0l0 3.765625q0 0.46875 0.046875 0.609375q0.0625 0.125 0.1875 0.203125q0.140625 0.078125 0.390625 0.078125q0.171875 0 0.46875 -0.046875z" fill-rule="nonzero"/><path fill="#000000" fill-opacity="0.0" d="m690.79266 203.76378l232.94489 0l0 52.157486l-232.94489 0z" fill-rule="evenodd"/><path fill="#000000" d="m700.9489 234.40253l-0.1875 -1.53125q0.546875 0.140625 0.9375 0.140625q0.546875 0 0.875 -0.1875q0.328125 -0.171875 0.546875 -0.5q0.15625 -0.25 0.5 -1.21875q0.046875 -0.140625 0.140625 -0.40625l-3.671875 -9.6875l1.765625 0l2.015625 5.59375q0.390625 1.078125 0.703125 2.25q0.28125 -1.125 0.671875 -2.203125l2.078125 -5.640625l1.640625 0l-3.6875 9.828125q-0.59375 1.609375 -0.921875 2.203125q-0.4375 0.8125 -1.0 1.1875q-0.5625 0.375 -1.34375 0.375q-0.484375 0 -1.0625 -0.203125zm23.214539 -11.578125l-8.828125 0l0 -1.515625l8.828125 0l0 1.515625zm0 4.0625l-8.828125 0l0 -1.53125l8.828125 0l0 1.53125zm7.437622 3.796875l0 -9.671875l1.46875 0l0 1.46875q0.5625 -1.03125 1.03125 -1.359375q0.484375 -0.328125 1.0625 -0.328125q0.828125 0 1.6875 0.53125l-0.5625 1.515625q-0.609375 -0.359375 -1.203125 -0.359375q-0.546875 0 -0.96875 0.328125q-0.421875 0.328125 -0.609375 0.890625q-0.28125 0.875 -0.28125 1.921875l0 5.0625l-1.625 0zm14.849121 -2.15625l0 -3.671875l-3.640625 0l0 -1.515625l3.640625 0l0 -3.640625l1.546875 0l0 3.640625l3.640625 0l0 1.515625l-3.640625 0l0 3.671875l-1.546875 0zm22.968872 0.71875q1.234375 0.859375 2.265625 1.25l-0.515625 1.21875q-1.4375 -0.515625 -2.875 -1.625q-1.484375 0.828125 -3.28125 0.828125q-1.8125 0 -3.296875 -0.875q-1.46875 -0.875 -2.265625 -2.453125q-0.796875 -1.59375 -0.796875 -3.578125q0 -1.984375 0.796875 -3.59375q0.8125 -1.625 2.28125 -2.46875q1.484375 -0.859375 3.328125 -0.859375q1.84375 0 3.328125 0.890625q1.484375 0.875 2.265625 2.453125q0.78125 1.578125 0.78125 3.5625q0 1.65625 -0.5 2.96875q-0.5 1.3125 -1.515625 2.28125zm-3.890625 -2.25q1.53125 0.421875 2.515625 1.28125q1.5625 -1.421875 1.5625 -4.28125q0 -1.625 -0.546875 -2.828125q-0.546875 -1.21875 -1.609375 -1.875q-1.0625 -0.671875 -2.390625 -0.671875q-1.96875 0 -3.28125 1.359375q-1.296875 1.34375 -1.296875 4.03125q0 2.59375 1.28125 4.0q1.296875 1.390625 3.296875 1.390625q0.953125 0 1.78125 -0.359375q-0.828125 -0.53125 -1.75 -0.765625l0.4375 -1.28125z" fill-rule="nonzero"/><path fill="#000000" d="m775.57117 236.6994l0.15625 0.96875q-0.453125 0.09375 -0.828125 0.09375q-0.59375 0 -0.921875 -0.1875q-0.328125 -0.1875 -0.46875 -0.484375q-0.125 -0.3125 -0.125 -1.296875l0 -3.703125l-0.796875 0l0 -0.859375l0.796875 0l0 -1.59375l1.09375 -0.65625l0 2.25l1.09375 0l0 0.859375l-1.09375 0l0 3.765625q0 0.46875 0.046875 0.609375q0.0625 0.125 0.1875 0.203125q0.140625 0.078125 0.390625 0.078125q0.171875 0 0.46875 -0.046875zm5.2835693 0.1875q-0.609375 0.515625 -1.171875 0.734375q-0.5625 0.203125 -1.203125 0.203125q-1.0625 0 -1.640625 -0.515625q-0.5625 -0.515625 -0.5625 -1.328125q0 -0.46875 0.203125 -0.859375q0.21875 -0.390625 0.5625 -0.625q0.359375 -0.25 0.796875 -0.359375q0.328125 -0.09375 0.96875 -0.171875q1.328125 -0.15625 1.953125 -0.375q0 -0.21875 0 -0.28125q0 -0.671875 -0.296875 -0.9375q-0.421875 -0.375 -1.25 -0.375q-0.765625 0 -1.140625 0.265625q-0.375 0.265625 -0.546875 0.953125l-1.0625 -0.140625q0.140625 -0.6875 0.46875 -1.109375q0.34375 -0.421875 0.96875 -0.640625q0.640625 -0.234375 1.46875 -0.234375q0.828125 0 1.34375 0.203125q0.515625 0.1875 0.75 0.484375q0.25 0.28125 0.34375 0.734375q0.0625 0.28125 0.0625 1.015625l0 1.453125q0 1.53125 0.0625 1.9375q0.078125 0.390625 0.28125 0.765625l-1.140625 0q-0.171875 -0.34375 -0.21875 -0.796875zm-0.09375 -2.4375q-0.59375 0.234375 -1.78125 0.40625q-0.671875 0.09375 -0.953125 0.21875q-0.28125 0.125 -0.4375 0.359375q-0.15625 0.234375 -0.15625 0.515625q0 0.4375 0.328125 0.734375q0.34375 0.296875 0.984375 0.296875q0.625 0 1.109375 -0.28125q0.5 -0.28125 0.734375 -0.765625q0.171875 -0.359375 0.171875 -1.09375l0 -0.390625zm2.7920532 3.234375l0 -6.453125l0.984375 0l0 0.984375q0.375 -0.6875 0.6875 -0.90625q0.328125 -0.21875 0.703125 -0.21875q0.546875 0 1.125 0.34375l-0.375 1.015625q-0.40625 -0.234375 -0.796875 -0.234375q-0.359375 0 -0.65625 0.21875q-0.28125 0.21875 -0.40625 0.59375q-0.171875 0.59375 -0.171875 1.28125l0 3.375l-1.09375 0zm3.9542236 0.53125l1.0625 0.15625q0.0625 0.5 0.359375 0.71875q0.40625 0.3125 1.109375 0.3125q0.765625 0 1.171875 -0.3125q0.421875 -0.296875 0.5625 -0.84375q0.09375 -0.34375 0.078125 -1.40625q-0.71875 0.84375 -1.78125 0.84375q-1.328125 0 -2.0625 -0.953125q-0.71875 -0.96875 -0.71875 -2.3125q0 -0.921875 0.328125 -1.703125q0.328125 -0.78125 0.96875 -1.203125q0.640625 -0.421875 1.484375 -0.421875q1.15625 0 1.890625 0.921875l0 -0.78125l1.0 0l0 5.578125q0 1.5 -0.3125 2.125q-0.296875 0.640625 -0.96875 1.0q-0.65625 0.375 -1.625 0.375q-1.15625 0 -1.875 -0.53125q-0.703125 -0.515625 -0.671875 -1.5625zm0.90625 -3.875q0 1.265625 0.5 1.859375q0.5 0.578125 1.265625 0.578125q0.75 0 1.25 -0.578125q0.515625 -0.578125 0.515625 -1.8125q0 -1.1875 -0.53125 -1.78125q-0.515625 -0.609375 -1.265625 -0.609375q-0.71875 0 -1.234375 0.59375q-0.5 0.59375 -0.5 1.75zm10.620117 1.265625l1.125 0.140625q-0.265625 0.984375 -0.984375 1.53125q-0.71875 0.546875 -1.84375 0.546875q-1.421875 0 -2.25 -0.859375q-0.828125 -0.875 -0.828125 -2.453125q0 -1.625 0.828125 -2.515625q0.84375 -0.90625 2.1875 -0.90625q1.296875 0 2.109375 0.890625q0.828125 0.875 0.828125 2.46875q0 0.09375 -0.015625 0.28125l-4.8125 0q0.0625 1.078125 0.609375 1.640625q0.546875 0.5625 1.34375 0.5625q0.609375 0 1.03125 -0.3125q0.421875 -0.328125 0.671875 -1.015625zm-3.59375 -1.765625l3.609375 0q-0.078125 -0.8125 -0.421875 -1.21875q-0.515625 -0.640625 -1.34375 -0.640625q-0.75 0 -1.265625 0.515625q-0.515625 0.5 -0.578125 1.34375zm8.479553 2.859375l0.15625 0.96875q-0.453125 0.09375 -0.828125 0.09375q-0.59375 0 -0.921875 -0.1875q-0.328125 -0.1875 -0.46875 -0.484375q-0.125 -0.3125 -0.125 -1.296875l0 -3.703125l-0.796875 0l0 -0.859375l0.796875 0l0 -1.59375l1.09375 -0.65625l0 2.25l1.09375 0l0 0.859375l-1.09375 0l0 3.765625q0 0.46875 0.046875 0.609375q0.0625 0.125 0.1875 0.203125q0.140625 0.078125 0.390625 0.078125q0.171875 0 0.46875 -0.046875z" fill-rule="nonzero"/><path fill="#000000" d="m808.5312 234.60565q-1.359375 -1.703125 -2.296875 -4.0q-0.9375 -2.296875 -0.9375 -4.765625q0 -2.15625 0.703125 -4.140625q0.828125 -2.3125 2.53125 -4.59375l1.171875 0q-1.09375 1.890625 -1.453125 2.703125q-0.546875 1.25 -0.875 2.625q-0.390625 1.703125 -0.390625 3.421875q0 4.375 2.71875 8.75l-1.171875 0zm2.4313965 -6.8125l1.625 -0.25q0.125 0.96875 0.75 1.5q0.625 0.515625 1.75 0.515625q1.125 0 1.671875 -0.453125q0.546875 -0.46875 0.546875 -1.09375q0 -0.546875 -0.484375 -0.875q-0.328125 -0.21875 -1.671875 -0.546875q-1.8125 -0.46875 -2.515625 -0.796875q-0.6875 -0.328125 -1.046875 -0.90625q-0.359375 -0.59375 -0.359375 -1.3125q0 -0.640625 0.296875 -1.1875q0.296875 -0.5625 0.8125 -0.921875q0.375 -0.28125 1.03125 -0.46875q0.671875 -0.203125 1.421875 -0.203125q1.140625 0 2.0 0.328125q0.859375 0.328125 1.265625 0.890625q0.421875 0.5625 0.578125 1.5l-1.609375 0.21875q-0.109375 -0.75 -0.640625 -1.171875q-0.515625 -0.421875 -1.46875 -0.421875q-1.140625 0 -1.625 0.375q-0.46875 0.375 -0.46875 0.875q0 0.3125 0.1875 0.578125q0.203125 0.265625 0.640625 0.4375q0.234375 0.09375 1.4375 0.421875q1.75 0.453125 2.4375 0.75q0.6875 0.296875 1.078125 0.859375q0.390625 0.5625 0.390625 1.40625q0 0.828125 -0.484375 1.546875q-0.46875 0.71875 -1.375 1.125q-0.90625 0.390625 -2.046875 0.390625q-1.875 0 -2.875 -0.78125q-0.984375 -0.78125 -1.25 -2.328125zm9.875 -8.703125l0 -1.890625l1.765625 0l0 1.5q0 1.21875 -0.28125 1.75q-0.390625 0.75 -1.21875 1.109375l-0.40625 -0.640625q0.484375 -0.203125 0.71875 -0.625q0.25 -0.4375 0.28125 -1.203125l-0.859375 0zm4.6760864 11.59375l0 -1.875l1.875 0l0 1.875q0 1.03125 -0.375 1.65625q-0.359375 0.640625 -1.15625 0.984375l-0.453125 -0.703125q0.515625 -0.21875 0.765625 -0.671875q0.25 -0.4375 0.28125 -1.265625l-0.9375 0zm17.991577 -9.671875l0 9.671875l-1.46875 0l0 -1.140625q-0.484375 0.71875 -0.9375 1.0q-0.640625 0.375 -1.484375 0.375q-0.765625 0 -1.34375 -0.3125q-0.4375 -0.21875 -0.96875 -0.890625l0 4.671875l-1.625 0l0 -13.375l1.625 0l0 4.09375q0 2.234375 0.234375 2.90625q0.234375 0.65625 0.765625 1.046875q0.546875 0.375 1.234375 0.375q0.734375 0 1.296875 -0.40625q0.578125 -0.40625 0.8125 -1.03125q0.234375 -0.640625 0.234375 -2.859375l0 -4.125l1.625 0z" fill-rule="nonzero"/><path fill="#000000" d="m848.17633 236.6994l0.15625 0.96875q-0.453125 0.09375 -0.828125 0.09375q-0.59375 0 -0.921875 -0.1875q-0.328125 -0.1875 -0.46875 -0.484375q-0.125 -0.3125 -0.125 -1.296875l0 -3.703125l-0.796875 0l0 -0.859375l0.796875 0l0 -1.59375l1.09375 -0.65625l0 2.25l1.09375 0l0 0.859375l-1.09375 0l0 3.765625q0 0.46875 0.046875 0.609375q0.0625 0.125 0.1875 0.203125q0.140625 0.078125 0.390625 0.078125q0.171875 0 0.46875 -0.046875zm5.2836304 0.1875q-0.609375 0.515625 -1.171875 0.734375q-0.5625 0.203125 -1.203125 0.203125q-1.0625 0 -1.640625 -0.515625q-0.5625 -0.515625 -0.5625 -1.328125q0 -0.46875 0.203125 -0.859375q0.21875 -0.390625 0.5625 -0.625q0.359375 -0.25 0.796875 -0.359375q0.328125 -0.09375 0.96875 -0.171875q1.328125 -0.15625 1.953125 -0.375q0 -0.21875 0 -0.28125q0 -0.671875 -0.296875 -0.9375q-0.421875 -0.375 -1.25 -0.375q-0.765625 0 -1.140625 0.265625q-0.375 0.265625 -0.546875 0.953125l-1.0625 -0.140625q0.140625 -0.6875 0.46875 -1.109375q0.34375 -0.421875 0.96875 -0.640625q0.640625 -0.234375 1.46875 -0.234375q0.828125 0 1.34375 0.203125q0.515625 0.1875 0.75 0.484375q0.25 0.28125 0.34375 0.734375q0.0625 0.28125 0.0625 1.015625l0 1.453125q0 1.53125 0.0625 1.9375q0.078125 0.390625 0.28125 0.765625l-1.140625 0q-0.171875 -0.34375 -0.21875 -0.796875zm-0.09375 -2.4375q-0.59375 0.234375 -1.78125 0.40625q-0.671875 0.09375 -0.953125 0.21875q-0.28125 0.125 -0.4375 0.359375q-0.15625 0.234375 -0.15625 0.515625q0 0.4375 0.328125 0.734375q0.34375 0.296875 0.984375 0.296875q0.625 0 1.109375 -0.28125q0.5 -0.28125 0.734375 -0.765625q0.171875 -0.359375 0.171875 -1.09375l0 -0.390625zm2.7920532 3.234375l0 -6.453125l0.984375 0l0 0.984375q0.375 -0.6875 0.6875 -0.90625q0.328125 -0.21875 0.703125 -0.21875q0.546875 0 1.125 0.34375l-0.375 1.015625q-0.40625 -0.234375 -0.796875 -0.234375q-0.359375 0 -0.65625 0.21875q-0.28125 0.21875 -0.40625 0.59375q-0.171875 0.59375 -0.171875 1.28125l0 3.375l-1.09375 0zm3.9541626 0.53125l1.0625 0.15625q0.0625 0.5 0.359375 0.71875q0.40625 0.3125 1.109375 0.3125q0.765625 0 1.171875 -0.3125q0.421875 -0.296875 0.5625 -0.84375q0.09375 -0.34375 0.078125 -1.40625q-0.71875 0.84375 -1.78125 0.84375q-1.328125 0 -2.0625 -0.953125q-0.71875 -0.96875 -0.71875 -2.3125q0 -0.921875 0.328125 -1.703125q0.328125 -0.78125 0.96875 -1.203125q0.640625 -0.421875 1.484375 -0.421875q1.15625 0 1.890625 0.921875l0 -0.78125l1.0 0l0 5.578125q0 1.5 -0.3125 2.125q-0.296875 0.640625 -0.96875 1.0q-0.65625 0.375 -1.625 0.375q-1.15625 0 -1.875 -0.53125q-0.703125 -0.515625 -0.671875 -1.5625zm0.90625 -3.875q0 1.265625 0.5 1.859375q0.5 0.578125 1.265625 0.578125q0.75 0 1.25 -0.578125q0.515625 -0.578125 0.515625 -1.8125q0 -1.1875 -0.53125 -1.78125q-0.515625 -0.609375 -1.265625 -0.609375q-0.71875 0 -1.234375 0.59375q-0.5 0.59375 -0.5 1.75zm10.620178 1.265625l1.125 0.140625q-0.265625 0.984375 -0.984375 1.53125q-0.71875 0.546875 -1.84375 0.546875q-1.421875 0 -2.25 -0.859375q-0.828125 -0.875 -0.828125 -2.453125q0 -1.625 0.828125 -2.515625q0.84375 -0.90625 2.1875 -0.90625q1.296875 0 2.109375 0.890625q0.828125 0.875 0.828125 2.46875q0 0.09375 -0.015625 0.28125l-4.8125 0q0.0625 1.078125 0.609375 1.640625q0.546875 0.5625 1.34375 0.5625q0.609375 0 1.03125 -0.3125q0.421875 -0.328125 0.671875 -1.015625zm-3.59375 -1.765625l3.609375 0q-0.078125 -0.8125 -0.421875 -1.21875q-0.515625 -0.640625 -1.34375 -0.640625q-0.75 0 -1.265625 0.515625q-0.515625 0.5 -0.578125 1.34375zm8.479553 2.859375l0.15625 0.96875q-0.453125 0.09375 -0.828125 0.09375q-0.59375 0 -0.921875 -0.1875q-0.328125 -0.1875 -0.46875 -0.484375q-0.125 -0.3125 -0.125 -1.296875l0 -3.703125l-0.796875 0l0 -0.859375l0.796875 0l0 -1.59375l1.09375 -0.65625l0 2.25l1.09375 0l0 0.859375l-1.09375 0l0 3.765625q0 0.46875 0.046875 0.609375q0.0625 0.125 0.1875 0.203125q0.140625 0.078125 0.390625 0.078125q0.171875 0 0.46875 -0.046875z" fill-rule="nonzero"/><path fill="#000000" d="m881.13635 234.60565q-1.359375 -1.703125 -2.296875 -4.0q-0.9375 -2.296875 -0.9375 -4.765625q0 -2.15625 0.703125 -4.140625q0.828125 -2.3125 2.53125 -4.59375l1.171875 0q-1.09375 1.890625 -1.453125 2.703125q-0.546875 1.25 -0.875 2.625q-0.390625 1.703125 -0.390625 3.421875q0 4.375 2.71875 8.75l-1.171875 0zm2.4314575 -6.8125l1.625 -0.25q0.125 0.96875 0.75 1.5q0.625 0.515625 1.75 0.515625q1.125 0 1.671875 -0.453125q0.546875 -0.46875 0.546875 -1.09375q0 -0.546875 -0.484375 -0.875q-0.328125 -0.21875 -1.671875 -0.546875q-1.8125 -0.46875 -2.515625 -0.796875q-0.6875 -0.328125 -1.046875 -0.90625q-0.359375 -0.59375 -0.359375 -1.3125q0 -0.640625 0.296875 -1.1875q0.296875 -0.5625 0.8125 -0.921875q0.375 -0.28125 1.03125 -0.46875q0.671875 -0.203125 1.421875 -0.203125q1.140625 0 2.0 0.328125q0.859375 0.328125 1.265625 0.890625q0.421875 0.5625 0.578125 1.5l-1.609375 0.21875q-0.109375 -0.75 -0.640625 -1.171875q-0.515625 -0.421875 -1.46875 -0.421875q-1.140625 0 -1.625 0.375q-0.46875 0.375 -0.46875 0.875q0 0.3125 0.1875 0.578125q0.203125 0.265625 0.640625 0.4375q0.234375 0.09375 1.4375 0.421875q1.75 0.453125 2.4375 0.75q0.6875 0.296875 1.078125 0.859375q0.390625 0.5625 0.390625 1.40625q0 0.828125 -0.484375 1.546875q-0.46875 0.71875 -1.375 1.125q-0.90625 0.390625 -2.046875 0.390625q-1.875 0 -2.875 -0.78125q-0.984375 -0.78125 -1.25 -2.328125zm9.875 -8.703125l0 -1.890625l1.765625 0l0 1.5q0 1.21875 -0.28125 1.75q-0.390625 0.75 -1.21875 1.109375l-0.40625 -0.640625q0.484375 -0.203125 0.71875 -0.625q0.25 -0.4375 0.28125 -1.203125l-0.859375 0zm5.3323364 15.515625l-1.1875 0q2.734375 -4.375 2.734375 -8.75q0 -1.71875 -0.390625 -3.390625q-0.3125 -1.375 -0.875 -2.625q-0.359375 -0.828125 -1.46875 -2.734375l1.1875 0q1.703125 2.28125 2.53125 4.59375q0.6875 1.984375 0.6875 4.140625q0 2.46875 -0.9375 4.765625q-0.9375 2.296875 -2.28125 4.0zm6.2126465 0l-1.1875 0q2.734375 -4.375 2.734375 -8.75q0 -1.71875 -0.390625 -3.390625q-0.3125 -1.375 -0.875 -2.625q-0.359375 -0.828125 -1.46875 -2.734375l1.1875 0q1.703125 2.28125 2.53125 4.59375q0.6875 1.984375 0.6875 4.140625q0 2.46875 -0.9375 4.765625q-0.9375 2.296875 -2.28125 4.0z" fill-rule="nonzero"/><path fill="#000000" fill-opacity="0.0" d="m232.96063 342.6483c0 12.500122 143.5748 35.842773 287.1496 25.000244c143.57483 -10.842499 287.1496 -55.87018 287.1496 -111.74039" fill-rule="evenodd"/><path stroke="#000000" stroke-width="1.0" stroke-linejoin="round" stroke-linecap="butt" d="m232.96063 342.6483c0 12.500122 143.5748 35.842773 287.1496 25.000244c143.57483 -10.842499 287.1496 -55.87018 287.1496 -111.74039" fill-rule="evenodd"/><path fill="#000000" fill-opacity="0.0" d="m559.6693 306.85303c123.79523 0 247.59052 -25.46457 247.59052 -50.92914" fill-rule="evenodd"/><path stroke="#000000" stroke-width="1.0" stroke-linejoin="round" stroke-linecap="butt" d="m559.6693 306.85303c61.897644 0 123.79523 -6.36615 170.2185 -15.915375c23.211609 -4.774597 42.554626 -10.344971 56.094727 -16.313232c6.7700806 -2.9841309 12.0894165 -6.0677185 15.716187 -9.20108c1.8134155 -1.5666504 3.2036743 -3.145752 4.140564 -4.7310486c0.23425293 -0.3963318 0.4401245 -0.7930603 0.61724854 -1.1900635l0.09625244 -0.22497559" fill-rule="evenodd"/><path fill="#000000" stroke="#000000" stroke-width="1.0" stroke-linecap="butt" d="m806.5528 259.27725l0.8684082 1.3323975l-0.46295166 -3.25531l-1.737854 2.7912903z" fill-rule="evenodd"/><path fill="#000000" fill-opacity="0.0" d="m807.2651 203.76378c0 -25.968506 -123.79529 -51.93701 -247.59052 -51.93701" fill-rule="evenodd"/><path stroke="#000000" stroke-width="1.0" stroke-linejoin="round" stroke-linecap="butt" d="m807.2651 203.76378c0 -12.984253 -30.948792 -25.968506 -77.37201 -35.706696c-23.211609 -4.869095 -50.29187 -8.926666 -79.3064 -11.766968c-14.507202 -1.420166 -29.498108 -2.5359955 -44.730713 -3.2967834c-7.616272 -0.38041687 -15.29303 -0.67204285 -23.0 -0.86857605c-3.8535156 -0.0982666 -7.7145386 -0.17277527 -11.579407 -0.22270203c-1.932373 -0.024963379 -3.8657227 -0.043777466 -5.7996216 -0.056365967l-2.3753052 -0.0116119385" fill-rule="evenodd"/><path fill="#000000" stroke="#000000" stroke-width="1.0" stroke-linecap="butt" d="m563.1016 151.83408l1.1269531 -1.1221771l-3.092163 1.1179962l3.0874023 1.1311646z" fill-rule="evenodd"/><path fill="#000000" fill-opacity="0.0" d="m620.19946 117.10761l126.6142 0l0 39.338585l-126.6142 0z" fill-rule="evenodd"/><path fill="#000000" d="m636.74634 140.48073l1.609375 0.21875q-0.265625 1.65625 -1.359375 2.609375q-1.078125 0.9375 -2.671875 0.9375q-1.984375 0 -3.1875 -1.296875q-1.203125 -1.296875 -1.203125 -3.71875q0 -1.578125 0.515625 -2.75q0.515625 -1.171875 1.578125 -1.75q1.0625 -0.59375 2.3125 -0.59375q1.578125 0 2.578125 0.796875q1.0 0.796875 1.28125 2.265625l-1.59375 0.234375q-0.234375 -0.96875 -0.8125 -1.453125q-0.578125 -0.5 -1.390625 -0.5q-1.234375 0 -2.015625 0.890625q-0.78125 0.890625 -0.78125 2.8125q0 1.953125 0.75 2.84375q0.75 0.875 1.953125 0.875q0.96875 0 1.609375 -0.59375q0.65625 -0.59375 0.828125 -1.828125zm3.0 3.546875l0 -9.671875l1.46875 0l0 1.46875q0.5625 -1.03125 1.03125 -1.359375q0.484375 -0.328125 1.0625 -0.328125q0.828125 0 1.6875 0.53125l-0.5625 1.515625q-0.609375 -0.359375 -1.203125 -0.359375q-0.546875 0 -0.96875 0.328125q-0.421875 0.328125 -0.609375 0.890625q-0.28125 0.875 -0.28125 1.921875l0 5.0625l-1.625 0zm6.2283325 -11.46875l0 -1.890625l1.640625 0l0 1.890625l-1.640625 0zm0 11.46875l0 -9.671875l1.640625 0l0 9.671875l-1.640625 0zm7.7229004 -1.46875l0.234375 1.453125q-0.6875 0.140625 -1.234375 0.140625q-0.890625 0 -1.390625 -0.28125q-0.484375 -0.28125 -0.6875 -0.734375q-0.203125 -0.46875 -0.203125 -1.9375l0 -5.578125l-1.203125 0l0 -1.265625l1.203125 0l0 -2.390625l1.625 -0.984375l0 3.375l1.65625 0l0 1.265625l-1.65625 0l0 5.671875q0 0.6875 0.078125 0.890625q0.09375 0.203125 0.28125 0.328125q0.203125 0.109375 0.578125 0.109375q0.265625 0 0.71875 -0.0625zm1.6052246 -10.0l0 -1.890625l1.640625 0l0 1.890625l-1.640625 0zm0 11.46875l0 -9.671875l1.640625 0l0 9.671875l-1.640625 0zm10.457275 -3.546875l1.609375 0.21875q-0.265625 1.65625 -1.359375 2.609375q-1.078125 0.9375 -2.671875 0.9375q-1.984375 0 -3.1875 -1.296875q-1.203125 -1.296875 -1.203125 -3.71875q0 -1.578125 0.515625 -2.75q0.515625 -1.171875 1.578125 -1.75q1.0625 -0.59375 2.3125 -0.59375q1.578125 0 2.578125 0.796875q1.0 0.796875 1.28125 2.265625l-1.59375 0.234375q-0.234375 -0.96875 -0.8125 -1.453125q-0.578125 -0.5 -1.390625 -0.5q-1.234375 0 -2.015625 0.890625q-0.78125 0.890625 -0.78125 2.8125q0 1.953125 0.75 2.84375q0.75 0.875 1.953125 0.875q0.96875 0 1.609375 -0.59375q0.65625 -0.59375 0.828125 -1.828125zm8.1521 3.546875l0 -13.359375l1.640625 0l0 13.359375l-1.640625 0zm3.5822754 -4.84375q0 -2.6875 1.484375 -3.96875q1.25 -1.078125 3.046875 -1.078125q2.0 0 3.265625 1.3125q1.265625 1.296875 1.265625 3.609375q0 1.859375 -0.5625 2.9375q-0.5625 1.0625 -1.640625 1.65625q-1.0625 0.59375 -2.328125 0.59375q-2.03125 0 -3.28125 -1.296875q-1.25 -1.3125 -1.25 -3.765625zm1.6875 0q0 1.859375 0.796875 2.796875q0.8125 0.921875 2.046875 0.921875q1.21875 0 2.03125 -0.921875q0.8125 -0.9375 0.8125 -2.84375q0 -1.796875 -0.8125 -2.71875q-0.8125 -0.921875 -2.03125 -0.921875q-1.234375 0 -2.046875 0.921875q-0.796875 0.90625 -0.796875 2.765625zm8.641357 1.953125l1.625 -0.25q0.125 0.96875 0.75 1.5q0.625 0.515625 1.75 0.515625q1.125 0 1.671875 -0.453125q0.546875 -0.46875 0.546875 -1.09375q0 -0.546875 -0.484375 -0.875q-0.328125 -0.21875 -1.671875 -0.546875q-1.8125 -0.46875 -2.515625 -0.796875q-0.6875 -0.328125 -1.046875 -0.90625q-0.359375 -0.59375 -0.359375 -1.3125q0 -0.640625 0.296875 -1.1875q0.296875 -0.5625 0.8125 -0.921875q0.375 -0.28125 1.03125 -0.46875q0.671875 -0.203125 1.421875 -0.203125q1.140625 0 2.0 0.328125q0.859375 0.328125 1.265625 0.890625q0.421875 0.5625 0.578125 1.5l-1.609375 0.21875q-0.109375 -0.75 -0.640625 -1.171875q-0.515625 -0.421875 -1.46875 -0.421875q-1.140625 0 -1.625 0.375q-0.46875 0.375 -0.46875 0.875q0 0.3125 0.1875 0.578125q0.203125 0.265625 0.640625 0.4375q0.234375 0.09375 1.4375 0.421875q1.75 0.453125 2.4375 0.75q0.6875 0.296875 1.078125 0.859375q0.390625 0.5625 0.390625 1.40625q0 0.828125 -0.484375 1.546875q-0.46875 0.71875 -1.375 1.125q-0.90625 0.390625 -2.046875 0.390625q-1.875 0 -2.875 -0.78125q-0.984375 -0.78125 -1.25 -2.328125zm9.328125 0l1.625 -0.25q0.125 0.96875 0.75 1.5q0.625 0.515625 1.75 0.515625q1.125 0 1.671875 -0.453125q0.546875 -0.46875 0.546875 -1.09375q0 -0.546875 -0.484375 -0.875q-0.328125 -0.21875 -1.671875 -0.546875q-1.8125 -0.46875 -2.515625 -0.796875q-0.6875 -0.328125 -1.046875 -0.90625q-0.359375 -0.59375 -0.359375 -1.3125q0 -0.640625 0.296875 -1.1875q0.296875 -0.5625 0.8125 -0.921875q0.375 -0.28125 1.03125 -0.46875q0.671875 -0.203125 1.421875 -0.203125q1.140625 0 2.0 0.328125q0.859375 0.328125 1.265625 0.890625q0.421875 0.5625 0.578125 1.5l-1.609375 0.21875q-0.109375 -0.75 -0.640625 -1.171875q-0.515625 -0.421875 -1.46875 -0.421875q-1.140625 0 -1.625 0.375q-0.46875 0.375 -0.46875 0.875q0 0.3125 0.1875 0.578125q0.203125 0.265625 0.640625 0.4375q0.234375 0.09375 1.4375 0.421875q1.75 0.453125 2.4375 0.75q0.6875 0.296875 1.078125 0.859375q0.390625 0.5625 0.390625 1.40625q0 0.828125 -0.484375 1.546875q-0.46875 0.71875 -1.375 1.125q-0.90625 0.390625 -2.046875 0.390625q-1.875 0 -2.875 -0.78125q-0.984375 -0.78125 -1.25 -2.328125z" fill-rule="nonzero"/><path fill="#000000" fill-opacity="0.0" d="m232.96063 187.62204c0 20.859116 0.01574707 31.289078 0.03149414 41.718216c0.01574707 10.429123 0.03149414 20.857422 0.03149414 41.71486" fill-rule="evenodd"/><path stroke="#000000" stroke-width="1.0" stroke-linejoin="round" stroke-linecap="butt" d="m232.96063 187.62204c0 20.859116 0.01574707 31.289062 0.03149414 41.7182c0.007873535 5.214569 0.01574707 10.428925 0.021652222 16.946838c0.002960205 3.2589417 0.00541687 6.8437653 0.0071411133 10.91745l0.002029419 10.423492" fill-rule="evenodd"/><path fill="#000000" stroke="#000000" stroke-width="1.0" stroke-linecap="butt" d="m233.02295 267.62802l-1.1248016 -1.1243591l1.1251831 3.0895386l1.1239929 -3.0899658z" fill-rule="evenodd"/><path fill="#000000" fill-opacity="0.0" d="m480.0 187.62204c0 20.859116 0.01574707 31.289078 0.03149414 41.718216c0.01574707 10.429123 0.03149414 20.857422 0.03149414 41.71486" fill-rule="evenodd"/><path stroke="#000000" stroke-width="1.0" stroke-linejoin="round" stroke-linecap="butt" d="m480.0 187.62204c0 20.859116 0.01574707 31.289062 0.03149414 41.7182c0.007873535 5.214569 0.01574707 10.428925 0.02166748 16.946838c0.0029296875 3.2589417 0.0054016113 6.8437653 0.0071105957 10.91745l0.0020751953 10.423492" fill-rule="evenodd"/><path fill="#000000" stroke="#000000" stroke-width="1.0" stroke-linecap="butt" d="m480.06232 267.62802l-1.1247864 -1.1243591l1.1251831 3.0895386l1.1239624 -3.0899658z" fill-rule="evenodd"/><path fill="#000000" fill-opacity="0.0" d="m233.02362 197.5748l91.77954 0l0 63.527557l-91.77954 0z" fill-rule="evenodd"/><path fill="#000000" d="m248.90182 222.36795l1.625 -0.25q0.125 0.96875 0.75 1.5q0.625 0.515625 1.75 0.515625q1.125 0 1.671875 -0.453125q0.546875 -0.46875 0.546875 -1.09375q0 -0.546875 -0.484375 -0.875q-0.328125 -0.21875 -1.671875 -0.546875q-1.8125 -0.46875 -2.515625 -0.796875q-0.6875 -0.328125 -1.046875 -0.90625q-0.359375 -0.59375 -0.359375 -1.3125q0 -0.640625 0.296875 -1.1875q0.296875 -0.5625 0.8125 -0.921875q0.375 -0.28125 1.03125 -0.46875q0.671875 -0.203125 1.421875 -0.203125q1.140625 0 2.0 0.328125q0.859375 0.328125 1.265625 0.890625q0.421875 0.5625 0.578125 1.5l-1.609375 0.21875q-0.109375 -0.75 -0.640625 -1.171875q-0.515625 -0.421875 -1.46875 -0.421875q-1.140625 0 -1.625 0.375q-0.46875 0.375 -0.46875 0.875q0 0.3125 0.1875 0.578125q0.203125 0.265625 0.640625 0.4375q0.234375 0.09375 1.4375 0.421875q1.75 0.453125 2.4375 0.75q0.6875 0.296875 1.078125 0.859375q0.390625 0.5625 0.390625 1.40625q0 0.828125 -0.484375 1.546875q-0.46875 0.71875 -1.375 1.125q-0.90625 0.390625 -2.046875 0.390625q-1.875 0 -2.875 -0.78125q-0.984375 -0.78125 -1.25 -2.328125zm9.984375 2.890625l0 -9.671875l1.46875 0l0 1.359375q0.453125 -0.71875 1.203125 -1.140625q0.765625 -0.4375 1.71875 -0.4375q1.078125 0 1.765625 0.453125q0.6875 0.4375 0.96875 1.234375q1.15625 -1.6875 2.984375 -1.6875q1.453125 0 2.21875 0.796875q0.78125 0.796875 0.78125 2.453125l0 6.640625l-1.640625 0l0 -6.09375q0 -0.984375 -0.15625 -1.40625q-0.15625 -0.4375 -0.578125 -0.703125q-0.421875 -0.265625 -0.984375 -0.265625q-1.015625 0 -1.6875 0.6875q-0.671875 0.671875 -0.671875 2.15625l0 5.625l-1.640625 0l0 -6.28125q0 -1.09375 -0.40625 -1.640625q-0.40625 -0.546875 -1.3125 -0.546875q-0.6875 0 -1.28125 0.359375q-0.59375 0.359375 -0.859375 1.0625q-0.25 0.703125 -0.25 2.03125l0 5.015625l-1.640625 0zm14.931427 -4.84375q0 -2.6875 1.484375 -3.96875q1.25 -1.078125 3.046875 -1.078125q2.0 0 3.265625 1.3125q1.265625 1.296875 1.265625 3.609375q0 1.859375 -0.5625 2.9375q-0.5625 1.0625 -1.640625 1.65625q-1.0625 0.59375 -2.328125 0.59375q-2.03125 0 -3.28125 -1.296875q-1.25 -1.3125 -1.25 -3.765625zm1.6875 0q0 1.859375 0.796875 2.796875q0.8125 0.921875 2.046875 0.921875q1.21875 0 2.03125 -0.921875q0.8125 -0.9375 0.8125 -2.84375q0 -1.796875 -0.8125 -2.71875q-0.8125 -0.921875 -2.03125 -0.921875q-1.234375 0 -2.046875 0.921875q-0.796875 0.90625 -0.796875 2.765625zm8.688202 0q0 -2.6875 1.484375 -3.96875q1.25 -1.078125 3.046875 -1.078125q2.0 0 3.265625 1.3125q1.265625 1.296875 1.265625 3.609375q0 1.859375 -0.5625 2.9375q-0.5625 1.0625 -1.640625 1.65625q-1.0625 0.59375 -2.328125 0.59375q-2.03125 0 -3.28125 -1.296875q-1.25 -1.3125 -1.25 -3.765625zm1.6875 0q0 1.859375 0.796875 2.796875q0.8125 0.921875 2.046875 0.921875q1.21875 0 2.03125 -0.921875q0.8125 -0.9375 0.8125 -2.84375q0 -1.796875 -0.8125 -2.71875q-0.8125 -0.921875 -2.03125 -0.921875q-1.234375 0 -2.046875 0.921875q-0.796875 0.90625 -0.796875 2.765625zm12.875732 3.375l0.234375 1.453125q-0.6875 0.140625 -1.234375 0.140625q-0.890625 0 -1.390625 -0.28125q-0.484375 -0.28125 -0.6875 -0.734375q-0.203125 -0.46875 -0.203125 -1.9375l0 -5.578125l-1.203125 0l0 -1.265625l1.203125 0l0 -2.390625l1.625 -0.984375l0 3.375l1.65625 0l0 1.265625l-1.65625 0l0 5.671875q0 0.6875 0.078125 0.890625q0.09375 0.203125 0.28125 0.328125q0.203125 0.109375 0.578125 0.109375q0.265625 0 0.71875 -0.0625zm1.6051636 1.46875l0 -13.359375l1.640625 0l0 4.796875q1.140625 -1.328125 2.890625 -1.328125q1.078125 0 1.859375 0.421875q0.796875 0.421875 1.140625 1.171875q0.34375 0.75 0.34375 2.171875l0 6.125l-1.640625 0l0 -6.125q0 -1.234375 -0.53125 -1.796875q-0.53125 -0.5625 -1.515625 -0.5625q-0.71875 0 -1.359375 0.390625q-0.640625 0.375 -0.921875 1.015625q-0.265625 0.640625 -0.265625 1.78125l0 5.296875l-1.640625 0z" fill-rule="nonzero"/><path fill="#000000" d="m257.94495 247.25858l0 -1.421875q-1.125 1.640625 -3.0625 1.640625q-0.859375 0 -1.609375 -0.328125q-0.734375 -0.328125 -1.09375 -0.828125q-0.359375 -0.5 -0.5 -1.21875q-0.109375 -0.46875 -0.109375 -1.53125l0 -5.984375l1.640625 0l0 5.359375q0 1.28125 0.109375 1.734375q0.15625 0.640625 0.65625 1.015625q0.5 0.375 1.234375 0.375q0.734375 0 1.375 -0.375q0.65625 -0.390625 0.921875 -1.03125q0.265625 -0.65625 0.265625 -1.890625l0 -5.1875l1.640625 0l0 9.671875l-1.46875 0zm4.047577 3.703125l0 -13.375l1.484375 0l0 1.25q0.53125 -0.734375 1.1875 -1.09375q0.671875 -0.375 1.625 -0.375q1.234375 0 2.171875 0.640625q0.953125 0.625 1.4375 1.796875q0.484375 1.15625 0.484375 2.546875q0 1.484375 -0.53125 2.671875q-0.53125 1.1875 -1.546875 1.828125q-1.015625 0.625 -2.140625 0.625q-0.8125 0 -1.46875 -0.34375q-0.65625 -0.34375 -1.0625 -0.875l0 4.703125l-1.640625 0zm1.484375 -8.484375q0 1.859375 0.75 2.765625q0.765625 0.890625 1.828125 0.890625q1.09375 0 1.875 -0.921875q0.78125 -0.9375 0.78125 -2.875q0 -1.84375 -0.765625 -2.765625q-0.75 -0.921875 -1.8125 -0.921875q-1.046875 0 -1.859375 0.984375q-0.796875 0.96875 -0.796875 2.84375zm15.156982 4.78125l0 -1.21875q-0.90625 1.4375 -2.703125 1.4375q-1.15625 0 -2.125 -0.640625q-0.96875 -0.640625 -1.5 -1.78125q-0.53125 -1.140625 -0.53125 -2.625q0 -1.453125 0.484375 -2.625q0.484375 -1.1875 1.4375 -1.8125q0.96875 -0.625 2.171875 -0.625q0.875 0 1.546875 0.375q0.6875 0.359375 1.109375 0.953125l0 -4.796875l1.640625 0l0 13.359375l-1.53125 0zm-5.171875 -4.828125q0 1.859375 0.78125 2.78125q0.78125 0.921875 1.84375 0.921875q1.078125 0 1.828125 -0.875q0.75 -0.890625 0.75 -2.6875q0 -1.984375 -0.765625 -2.90625q-0.765625 -0.9375 -1.890625 -0.9375q-1.078125 0 -1.8125 0.890625q-0.734375 0.890625 -0.734375 2.8125zm15.594452 3.640625q-0.921875 0.765625 -1.765625 1.09375q-0.828125 0.3125 -1.796875 0.3125q-1.59375 0 -2.453125 -0.78125q-0.859375 -0.78125 -0.859375 -1.984375q0 -0.71875 0.328125 -1.296875q0.328125 -0.59375 0.84375 -0.9375q0.53125 -0.359375 1.1875 -0.546875q0.46875 -0.125 1.453125 -0.25q1.984375 -0.234375 2.921875 -0.5625q0.015625 -0.34375 0.015625 -0.421875q0 -1.0 -0.46875 -1.421875q-0.625 -0.546875 -1.875 -0.546875q-1.15625 0 -1.703125 0.40625q-0.546875 0.40625 -0.8125 1.421875l-1.609375 -0.21875q0.21875 -1.015625 0.71875 -1.640625q0.5 -0.640625 1.453125 -0.984375q0.953125 -0.34375 2.1875 -0.34375q1.25 0 2.015625 0.296875q0.78125 0.28125 1.140625 0.734375q0.375 0.4375 0.515625 1.109375q0.078125 0.421875 0.078125 1.515625l0 2.1875q0 2.28125 0.109375 2.890625q0.109375 0.59375 0.40625 1.15625l-1.703125 0q-0.265625 -0.515625 -0.328125 -1.1875zm-0.140625 -3.671875q-0.890625 0.375 -2.671875 0.625q-1.015625 0.140625 -1.4375 0.328125q-0.421875 0.1875 -0.65625 0.53125q-0.21875 0.34375 -0.21875 0.78125q0 0.65625 0.5 1.09375q0.5 0.4375 1.453125 0.4375q0.9375 0 1.671875 -0.40625q0.75 -0.421875 1.09375 -1.140625q0.265625 -0.5625 0.265625 -1.640625l0 -0.609375zm7.7819824 3.390625l0.234375 1.453125q-0.6875 0.140625 -1.234375 0.140625q-0.890625 0 -1.390625 -0.28125q-0.484375 -0.28125 -0.6875 -0.734375q-0.203125 -0.46875 -0.203125 -1.9375l0 -5.578125l-1.203125 0l0 -1.265625l1.203125 0l0 -2.390625l1.625 -0.984375l0 3.375l1.65625 0l0 1.265625l-1.65625 0l0 5.671875q0 0.6875 0.078125 0.890625q0.09375 0.203125 0.28125 0.328125q0.203125 0.109375 0.578125 0.109375q0.265625 0 0.71875 -0.0625zm8.230164 -1.640625l1.6875 0.203125q-0.40625 1.484375 -1.484375 2.3125q-1.078125 0.8125 -2.765625 0.8125q-2.125 0 -3.375 -1.296875q-1.234375 -1.3125 -1.234375 -3.671875q0 -2.453125 1.25 -3.796875q1.265625 -1.34375 3.265625 -1.34375q1.9375 0 3.15625 1.328125q1.234375 1.3125 1.234375 3.703125q0 0.15625 0 0.4375l-7.21875 0q0.09375 1.59375 0.90625 2.453125q0.8125 0.84375 2.015625 0.84375q0.90625 0 1.546875 -0.46875q0.640625 -0.484375 1.015625 -1.515625zm-5.390625 -2.65625l5.40625 0q-0.109375 -1.21875 -0.625 -1.828125q-0.78125 -0.953125 -2.03125 -0.953125q-1.125 0 -1.90625 0.765625q-0.765625 0.75 -0.84375 2.015625z" fill-rule="nonzero"/><path fill="#000000" fill-opacity="0.0" d="m480.0 197.5748l91.77954 0l0 63.527557l-91.77954 0z" fill-rule="evenodd"/><path fill="#000000" d="m495.8782 222.36795l1.625 -0.25q0.125 0.96875 0.75 1.5q0.625 0.515625 1.75 0.515625q1.125 0 1.671875 -0.453125q0.546875 -0.46875 0.546875 -1.09375q0 -0.546875 -0.484375 -0.875q-0.328125 -0.21875 -1.671875 -0.546875q-1.8125 -0.46875 -2.515625 -0.796875q-0.6875 -0.328125 -1.046875 -0.90625q-0.359375 -0.59375 -0.359375 -1.3125q0 -0.640625 0.296875 -1.1875q0.296875 -0.5625 0.8125 -0.921875q0.375 -0.28125 1.03125 -0.46875q0.671875 -0.203125 1.421875 -0.203125q1.140625 0 2.0 0.328125q0.859375 0.328125 1.265625 0.890625q0.421875 0.5625 0.578125 1.5l-1.609375 0.21875q-0.109375 -0.75 -0.640625 -1.171875q-0.515625 -0.421875 -1.46875 -0.421875q-1.140625 0 -1.625 0.375q-0.46875 0.375 -0.46875 0.875q0 0.3125 0.1875 0.578125q0.203125 0.265625 0.640625 0.4375q0.234375 0.09375 1.4375 0.421875q1.75 0.453125 2.4375 0.75q0.6875 0.296875 1.078125 0.859375q0.390625 0.5625 0.390625 1.40625q0 0.828125 -0.484375 1.546875q-0.46875 0.71875 -1.375 1.125q-0.90625 0.390625 -2.046875 0.390625q-1.875 0 -2.875 -0.78125q-0.984375 -0.78125 -1.25 -2.328125zm9.984375 2.890625l0 -9.671875l1.46875 0l0 1.359375q0.453125 -0.71875 1.203125 -1.140625q0.765625 -0.4375 1.71875 -0.4375q1.078125 0 1.7655945 0.453125q0.6875 0.4375 0.96875 1.234375q1.15625 -1.6875 2.984375 -1.6875q1.453125 0 2.21875 0.796875q0.78125 0.796875 0.78125 2.453125l0 6.640625l-1.640625 0l0 -6.09375q0 -0.984375 -0.15625 -1.40625q-0.15625 -0.4375 -0.578125 -0.703125q-0.421875 -0.265625 -0.984375 -0.265625q-1.015625 0 -1.6875 0.6875q-0.671875 0.671875 -0.671875 2.15625l0 5.625l-1.6405945 0l0 -6.28125q0 -1.09375 -0.40625 -1.640625q-0.40625 -0.546875 -1.3125 -0.546875q-0.6875 0 -1.28125 0.359375q-0.59375 0.359375 -0.859375 1.0625q-0.25 0.703125 -0.25 2.03125l0 5.015625l-1.640625 0zm14.931427 -4.84375q0 -2.6875 1.484375 -3.96875q1.25 -1.078125 3.046875 -1.078125q2.0 0 3.265625 1.3125q1.265625 1.296875 1.265625 3.609375q0 1.859375 -0.5625 2.9375q-0.5625 1.0625 -1.640625 1.65625q-1.0625 0.59375 -2.328125 0.59375q-2.03125 0 -3.28125 -1.296875q-1.25 -1.3125 -1.25 -3.765625zm1.6875 0q0 1.859375 0.796875 2.796875q0.8125 0.921875 2.046875 0.921875q1.21875 0 2.03125 -0.921875q0.8125 -0.9375 0.8125 -2.84375q0 -1.796875 -0.8125 -2.71875q-0.8125 -0.921875 -2.03125 -0.921875q-1.234375 0 -2.046875 0.921875q-0.796875 0.90625 -0.796875 2.765625zm8.688232 0q0 -2.6875 1.484375 -3.96875q1.25 -1.078125 3.046875 -1.078125q2.0 0 3.265625 1.3125q1.265625 1.296875 1.265625 3.609375q0 1.859375 -0.5625 2.9375q-0.5625 1.0625 -1.640625 1.65625q-1.0625 0.59375 -2.328125 0.59375q-2.03125 0 -3.28125 -1.296875q-1.25 -1.3125 -1.25 -3.765625zm1.6875 0q0 1.859375 0.796875 2.796875q0.8125 0.921875 2.046875 0.921875q1.21875 0 2.03125 -0.921875q0.8125 -0.9375 0.8125 -2.84375q0 -1.796875 -0.8125 -2.71875q-0.8125 -0.921875 -2.03125 -0.921875q-1.234375 0 -2.046875 0.921875q-0.796875 0.90625 -0.796875 2.765625zm12.875671 3.375l0.234375 1.453125q-0.6875 0.140625 -1.234375 0.140625q-0.890625 0 -1.390625 -0.28125q-0.484375 -0.28125 -0.6875 -0.734375q-0.203125 -0.46875 -0.203125 -1.9375l0 -5.578125l-1.203125 0l0 -1.265625l1.203125 0l0 -2.390625l1.625 -0.984375l0 3.375l1.65625 0l0 1.265625l-1.65625 0l0 5.671875q0 0.6875 0.078125 0.890625q0.09375 0.203125 0.28125 0.328125q0.203125 0.109375 0.578125 0.109375q0.265625 0 0.71875 -0.0625zm1.6052246 1.46875l0 -13.359375l1.640625 0l0 4.796875q1.140625 -1.328125 2.890625 -1.328125q1.078125 0 1.859375 0.421875q0.796875 0.421875 1.140625 1.171875q0.34375 0.75 0.34375 2.171875l0 6.125l-1.640625 0l0 -6.125q0 -1.234375 -0.53125 -1.796875q-0.53125 -0.5625 -1.515625 -0.5625q-0.71875 0 -1.359375 0.390625q-0.640625 0.375 -0.921875 1.015625q-0.265625 0.640625 -0.265625 1.78125l0 5.296875l-1.640625 0z" fill-rule="nonzero"/><path fill="#000000" d="m504.92133 247.25858l0 -1.421875q-1.125 1.640625 -3.0625 1.640625q-0.859375 0 -1.609375 -0.328125q-0.734375 -0.328125 -1.09375 -0.828125q-0.359375 -0.5 -0.5 -1.21875q-0.109375 -0.46875 -0.109375 -1.53125l0 -5.984375l1.640625 0l0 5.359375q0 1.28125 0.109375 1.734375q0.15625 0.640625 0.65625 1.015625q0.5 0.375 1.234375 0.375q0.734375 0 1.375 -0.375q0.65625 -0.390625 0.921875 -1.03125q0.265625 -0.65625 0.265625 -1.890625l0 -5.1875l1.640625 0l0 9.671875l-1.46875 0zm4.047577 3.703125l0 -13.375l1.484375 0l0 1.25q0.53125 -0.734375 1.1875 -1.09375q0.6719055 -0.375 1.6250305 -0.375q1.234375 0 2.171875 0.640625q0.953125 0.625 1.4375 1.796875q0.484375 1.15625 0.484375 2.546875q0 1.484375 -0.53125 2.671875q-0.53125 1.1875 -1.546875 1.828125q-1.015625 0.625 -2.140625 0.625q-0.8125 0 -1.4687805 -0.34375q-0.65625 -0.34375 -1.0625 -0.875l0 4.703125l-1.640625 0zm1.484375 -8.484375q0 1.859375 0.75 2.765625q0.765625 0.890625 1.8281555 0.890625q1.09375 0 1.875 -0.921875q0.78125 -0.9375 0.78125 -2.875q0 -1.84375 -0.765625 -2.765625q-0.75 -0.921875 -1.8125 -0.921875q-1.046875 0 -1.8594055 0.984375q-0.796875 0.96875 -0.796875 2.84375zm15.156952 4.78125l0 -1.21875q-0.90625 1.4375 -2.703125 1.4375q-1.15625 0 -2.125 -0.640625q-0.96875 -0.640625 -1.5 -1.78125q-0.53125 -1.140625 -0.53125 -2.625q0 -1.453125 0.484375 -2.625q0.484375 -1.1875 1.4375 -1.8125q0.96875 -0.625 2.171875 -0.625q0.875 0 1.546875 0.375q0.6875 0.359375 1.109375 0.953125l0 -4.796875l1.640625 0l0 13.359375l-1.53125 0zm-5.171875 -4.828125q0 1.859375 0.78125 2.78125q0.78125 0.921875 1.84375 0.921875q1.078125 0 1.828125 -0.875q0.75 -0.890625 0.75 -2.6875q0 -1.984375 -0.765625 -2.90625q-0.765625 -0.9375 -1.890625 -0.9375q-1.078125 0 -1.8125 0.890625q-0.734375 0.890625 -0.734375 2.8125zm15.594482 3.640625q-0.921875 0.765625 -1.765625 1.09375q-0.828125 0.3125 -1.796875 0.3125q-1.59375 0 -2.453125 -0.78125q-0.859375 -0.78125 -0.859375 -1.984375q0 -0.71875 0.328125 -1.296875q0.328125 -0.59375 0.84375 -0.9375q0.53125 -0.359375 1.1875 -0.546875q0.46875 -0.125 1.453125 -0.25q1.984375 -0.234375 2.921875 -0.5625q0.015625 -0.34375 0.015625 -0.421875q0 -1.0 -0.46875 -1.421875q-0.625 -0.546875 -1.875 -0.546875q-1.15625 0 -1.703125 0.40625q-0.546875 0.40625 -0.8125 1.421875l-1.609375 -0.21875q0.21875 -1.015625 0.71875 -1.640625q0.5 -0.640625 1.453125 -0.984375q0.953125 -0.34375 2.1875 -0.34375q1.25 0 2.015625 0.296875q0.78125 0.28125 1.140625 0.734375q0.375 0.4375 0.515625 1.109375q0.078125 0.421875 0.078125 1.515625l0 2.1875q0 2.28125 0.109375 2.890625q0.109375 0.59375 0.40625 1.15625l-1.703125 0q-0.265625 -0.515625 -0.328125 -1.1875zm-0.140625 -3.671875q-0.890625 0.375 -2.671875 0.625q-1.015625 0.140625 -1.4375 0.328125q-0.421875 0.1875 -0.65625 0.53125q-0.21875 0.34375 -0.21875 0.78125q0 0.65625 0.5 1.09375q0.5 0.4375 1.453125 0.4375q0.9375 0 1.671875 -0.40625q0.75 -0.421875 1.09375 -1.140625q0.265625 -0.5625 0.265625 -1.640625l0 -0.609375zm7.7819824 3.390625l0.234375 1.453125q-0.6875 0.140625 -1.234375 0.140625q-0.890625 0 -1.390625 -0.28125q-0.484375 -0.28125 -0.6875 -0.734375q-0.203125 -0.46875 -0.203125 -1.9375l0 -5.578125l-1.203125 0l0 -1.265625l1.203125 0l0 -2.390625l1.625 -0.984375l0 3.375l1.65625 0l0 1.265625l-1.65625 0l0 5.671875q0 0.6875 0.078125 0.890625q0.09375 0.203125 0.28125 0.328125q0.203125 0.109375 0.578125 0.109375q0.265625 0 0.71875 -0.0625zm8.230164 -1.640625l1.6875 0.203125q-0.40625 1.484375 -1.484375 2.3125q-1.078125 0.8125 -2.765625 0.8125q-2.125 0 -3.375 -1.296875q-1.234375 -1.3125 -1.234375 -3.671875q0 -2.453125 1.25 -3.796875q1.265625 -1.34375 3.265625 -1.34375q1.9375 0 3.15625 1.328125q1.234375 1.3125 1.234375 3.703125q0 0.15625 0 0.4375l-7.21875 0q0.09375 1.59375 0.90625 2.453125q0.8125 0.84375 2.015625 0.84375q0.90625 0 1.546875 -0.46875q0.640625 -0.484375 1.015625 -1.515625zm-5.390625 -2.65625l5.40625 0q-0.109375 -1.21875 -0.625 -1.828125q-0.78125 -0.953125 -2.03125 -0.953125q-1.125 0 -1.90625 0.765625q-0.765625 0.75 -0.84375 2.015625z" fill-rule="nonzero"/><path fill="#000000" fill-opacity="0.0" d="m480.0 116.031494c0 -12.5 -61.75592 -25.007874 -123.51181 -25.0c-61.75592 0.007873535 -123.51181 12.531502 -123.51181 25.062996" fill-rule="evenodd"/><path stroke="#000000" stroke-width="1.0" stroke-linejoin="round" stroke-linecap="butt" d="m480.0 116.031494c0 -12.5 -61.75592 -25.007874 -123.51181 -25.0c-30.87796 0.0039367676 -61.75592 3.1368103 -84.91437 7.8351364c-11.579224 2.3491669 -21.228592 5.089691 -27.983154 8.026146c-3.3772736 1.4682312 -6.030838 2.985443 -7.840088 4.527199c-0.45233154 0.385437 -0.85188293 0.77241516 -1.1967468 1.1605377c-0.08622742 0.09703827 -0.16903687 0.1941452 -0.24841309 0.29130554l-0.0382843 0.047943115" fill-rule="evenodd"/><path fill="#000000" stroke="#000000" stroke-width="1.0" stroke-linecap="butt" d="m234.26714 112.91977l-0.61820984 -1.465332l-0.12194824 3.2858047l2.20549 -2.4386902z" fill-rule="evenodd"/><path fill="#000000" fill-opacity="0.0" d="m276.8189 50.48819l159.33856 0l0 50.92913l-159.33856 0z" fill-rule="evenodd"/><path fill="#000000" d="m319.82956 81.43526q1.234375 0.859375 2.265625 1.25l-0.515625 1.21875q-1.4375 -0.515625 -2.875 -1.625q-1.484375 0.828125 -3.28125 0.828125q-1.8125 0 -3.296875 -0.875q-1.46875 -0.875 -2.265625 -2.453125q-0.796875 -1.59375 -0.796875 -3.578125q0 -1.984375 0.796875 -3.59375q0.8125 -1.625 2.28125 -2.46875q1.484375 -0.859375 3.328125 -0.859375q1.84375 0 3.328125 0.890625q1.484375 0.875 2.265625 2.453125q0.78125 1.578125 0.78125 3.5625q0 1.65625 -0.5 2.96875q-0.5 1.3125 -1.515625 2.28125zm-3.890625 -2.25q1.53125 0.421875 2.515625 1.28125q1.5625 -1.421875 1.5625 -4.28125q0 -1.625 -0.546875 -2.828125q-0.546875 -1.21875 -1.609375 -1.875q-1.0625 -0.671875 -2.390625 -0.671875q-1.96875 0 -3.28125 1.359375q-1.296875 1.34375 -1.296875 4.03125q0 2.59375 1.28125 4.0q1.296875 1.390625 3.296875 1.390625q0.953125 0 1.78125 -0.359375q-0.828125 -0.53125 -1.75 -0.765625l0.4375 -1.28125zm12.944733 4.484375l1.59375 0.234375q0.109375 0.75 0.5625 1.078125q0.609375 0.453125 1.671875 0.453125q1.140625 0 1.75 -0.453125q0.625 -0.453125 0.84375 -1.265625q0.125 -0.5 0.109375 -2.109375q-1.0625 1.265625 -2.671875 1.265625q-2.0 0 -3.09375 -1.4375q-1.09375 -1.4375 -1.09375 -3.453125q0 -1.390625 0.5 -2.5625q0.515625 -1.171875 1.453125 -1.796875q0.953125 -0.640625 2.25 -0.640625q1.703125 0 2.8125 1.375l0 -1.15625l1.515625 0l0 8.359375q0 2.265625 -0.46875 3.203125q-0.453125 0.9375 -1.453125 1.484375q-0.984375 0.546875 -2.453125 0.546875q-1.71875 0 -2.796875 -0.78125q-1.0625 -0.765625 -1.03125 -2.34375zm1.359375 -5.8125q0 1.90625 0.75 2.78125q0.765625 0.875 1.90625 0.875q1.125 0 1.890625 -0.859375q0.765625 -0.875 0.765625 -2.734375q0 -1.78125 -0.796875 -2.671875q-0.78125 -0.90625 -1.890625 -0.90625q-1.09375 0 -1.859375 0.890625q-0.765625 0.875 -0.765625 2.625zm9.313232 5.015625l0 -9.671875l1.46875 0l0 1.46875q0.5625 -1.03125 1.03125 -1.359375q0.484375 -0.328125 1.0625 -0.328125q0.828125 0 1.6875 0.53125l-0.5625 1.515625q-0.609375 -0.359375 -1.203125 -0.359375q-0.546875 0 -0.96875 0.328125q-0.421875 0.328125 -0.609375 0.890625q-0.28125 0.875 -0.28125 1.921875l0 5.0625l-1.625 0zm12.540802 -1.1875q-0.921875 0.765625 -1.765625 1.09375q-0.828125 0.3125 -1.796875 0.3125q-1.59375 0 -2.453125 -0.78125q-0.859375 -0.78125 -0.859375 -1.984375q0 -0.71875 0.328125 -1.296875q0.328125 -0.59375 0.84375 -0.9375q0.53125 -0.359375 1.1875 -0.546875q0.46875 -0.125 1.453125 -0.25q1.984375 -0.234375 2.921875 -0.5625q0.015625 -0.34375 0.015625 -0.421875q0 -1.0 -0.46875 -1.421875q-0.625 -0.546875 -1.875 -0.546875q-1.15625 0 -1.703125 0.40625q-0.546875 0.40625 -0.8125 1.421875l-1.609375 -0.21875q0.21875 -1.015625 0.71875 -1.640625q0.5 -0.640625 1.453125 -0.984375q0.953125 -0.34375 2.1875 -0.34375q1.25 0 2.015625 0.296875q0.78125 0.28125 1.140625 0.734375q0.375 0.4375 0.515625 1.109375q0.078125 0.421875 0.078125 1.515625l0 2.1875q0 2.28125 0.109375 2.890625q0.109375 0.59375 0.40625 1.15625l-1.703125 0q-0.265625 -0.515625 -0.328125 -1.1875zm-0.140625 -3.671875q-0.890625 0.375 -2.671875 0.625q-1.015625 0.140625 -1.4375 0.328125q-0.421875 0.1875 -0.65625 0.53125q-0.21875 0.34375 -0.21875 0.78125q0 0.65625 0.5 1.09375q0.5 0.4375 1.453125 0.4375q0.9375 0 1.671875 -0.40625q0.75 -0.421875 1.09375 -1.140625q0.265625 -0.5625 0.265625 -1.640625l0 -0.609375zm10.469452 4.859375l0 -1.21875q-0.90625 1.4375 -2.703125 1.4375q-1.15625 0 -2.125 -0.640625q-0.96875 -0.640625 -1.5 -1.78125q-0.53125 -1.140625 -0.53125 -2.625q0 -1.453125 0.484375 -2.625q0.484375 -1.1875 1.4375 -1.8125q0.96875 -0.625 2.171875 -0.625q0.875 0 1.546875 0.375q0.6875 0.359375 1.109375 0.953125l0 -4.796875l1.640625 0l0 13.359375l-1.53125 0zm-5.171875 -4.828125q0 1.859375 0.78125 2.78125q0.78125 0.921875 1.84375 0.921875q1.078125 0 1.828125 -0.875q0.75 -0.890625 0.75 -2.6875q0 -1.984375 -0.765625 -2.90625q-0.765625 -0.9375 -1.890625 -0.9375q-1.078125 0 -1.8125 0.890625q-0.734375 0.890625 -0.734375 2.8125zm9.281982 -6.640625l0 -1.890625l1.640625 0l0 1.890625l-1.640625 0zm0 11.46875l0 -9.671875l1.640625 0l0 9.671875l-1.640625 0zm10.769806 -3.109375l1.6875 0.203125q-0.40625 1.484375 -1.484375 2.3125q-1.078125 0.8125 -2.765625 0.8125q-2.125 0 -3.375 -1.296875q-1.234375 -1.3125 -1.234375 -3.671875q0 -2.453125 1.25 -3.796875q1.265625 -1.34375 3.265625 -1.34375q1.9375 0 3.15625 1.328125q1.234375 1.3125 1.234375 3.703125q0 0.15625 0 0.4375l-7.21875 0q0.09375 1.59375 0.90625 2.453125q0.8125 0.84375 2.015625 0.84375q0.90625 0 1.546875 -0.46875q0.640625 -0.484375 1.015625 -1.515625zm-5.390625 -2.65625l5.40625 0q-0.109375 -1.21875 -0.625 -1.828125q-0.78125 -0.953125 -2.03125 -0.953125q-1.125 0 -1.90625 0.765625q-0.765625 0.75 -0.84375 2.015625zm9.141357 5.765625l0 -9.671875l1.46875 0l0 1.375q1.0625 -1.59375 3.078125 -1.59375q0.875 0 1.609375 0.3125q0.734375 0.3125 1.09375 0.828125q0.375 0.5 0.515625 1.203125q0.09375 0.453125 0.09375 1.59375l0 5.953125l-1.640625 0l0 -5.890625q0 -1.0 -0.203125 -1.484375q-0.1875 -0.5 -0.671875 -0.796875q-0.484375 -0.296875 -1.140625 -0.296875q-1.046875 0 -1.8125 0.671875q-0.75 0.65625 -0.75 2.515625l0 5.28125l-1.640625 0zm13.953827 -1.46875l0.234375 1.453125q-0.6875 0.140625 -1.234375 0.140625q-0.890625 0 -1.390625 -0.28125q-0.484375 -0.28125 -0.6875 -0.734375q-0.203125 -0.46875 -0.203125 -1.9375l0 -5.578125l-1.203125 0l0 -1.265625l1.203125 0l0 -2.390625l1.625 -0.984375l0 3.375l1.65625 0l0 1.265625l-1.65625 0l0 5.671875q0 0.6875 0.078125 0.890625q0.09375 0.203125 0.28125 0.328125q0.203125 0.109375 0.578125 0.109375q0.265625 0 0.71875 -0.0625zm0.9489441 -1.421875l1.625 -0.25q0.125 0.96875 0.75 1.5q0.625 0.515625 1.75 0.515625q1.125 0 1.671875 -0.453125q0.546875 -0.46875 0.546875 -1.09375q0 -0.546875 -0.484375 -0.875q-0.328125 -0.21875 -1.671875 -0.546875q-1.8125 -0.46875 -2.515625 -0.796875q-0.6875 -0.328125 -1.046875 -0.90625q-0.359375 -0.59375 -0.359375 -1.3125q0 -0.640625 0.296875 -1.1875q0.296875 -0.5625 0.8125 -0.921875q0.375 -0.28125 1.03125 -0.46875q0.671875 -0.203125 1.421875 -0.203125q1.140625 0 2.0 0.328125q0.859375 0.328125 1.265625 0.890625q0.421875 0.5625 0.578125 1.5l-1.609375 0.21875q-0.109375 -0.75 -0.640625 -1.171875q-0.515625 -0.421875 -1.46875 -0.421875q-1.140625 0 -1.625 0.375q-0.46875 0.375 -0.46875 0.875q0 0.3125 0.1875 0.578125q0.203125 0.265625 0.640625 0.4375q0.234375 0.09375 1.4375 0.421875q1.75 0.453125 2.4375 0.75q0.6875 0.296875 1.078125 0.859375q0.390625 0.5625 0.390625 1.40625q0 0.828125 -0.484375 1.546875q-0.46875 0.71875 -1.375 1.125q-0.90625 0.390625 -2.046875 0.390625q-1.875 0 -2.875 -0.78125q-0.984375 -0.78125 -1.25 -2.328125z" fill-rule="nonzero"/></g></svg>